:SAMPLES-PER-SECOND 30
:FULLY-SPECIFIED
:DEGREES
242
root  12.55495567 41.57155555 -3.160955399 -1.041949987 -38.62129974 -11.95230007
lowerback  8.951459885 3.365080118 -2.522000074
upperback  4.153160095 4.08190012 -5.002289772
thorax  -0.5013570189 2.00970006 -4.145909786
lowerneck  4.861559868 8.407930374 -3.087409973
upperneck  18.45840073 9.503910065 12.16219997
head  3.918849945 4.951330185 4.381810188
lclavicle  0 -9.442270133e-015 7.951389973e-016
lhumerus  15.92549992 -9.693699837 61.95930099
lradius  2.760377142e-031 -2.202081305e-031 141.4190063
lwrist  -7.062250077e-031 1.765562519e-031 9.970700264
lhand  -1.496451383e-031 -27.76390076 20.11240005
lfingers  90 7.125020027 -90
lthumb  89.89689403 5.08795885 91.16245106
rclavicle  0 -9.442270133e-015 7.951389973e-016
rhumerus  -12.65250015 2.424479961 -72.24810028
rradius  -2.431738869e-031 2.560369136e-031 133.5240021
rwrist  1.059337512e-030 -3.531125038e-031 -2.918349981
rhand  -7.920061211e-032 -33.2840004 9.303460121
rfingers  -90 -7.125020027 -90
rthumb  -92.93752616 -24.25625642 -97.11982154
rfemur  -13.76010036 14.79100037 11.16399956
rtibia  -0 0 46.39170074
rfoot  -0 2.769979954 -13.0333004
rtoes  5.373923086 19.29304026 -105.8922705
lfemur  -22.45260048 -5.116479874 6.016310215
ltibia  -0 0 49.51990128
lfoot  5.626577257e-032 11.30630016 -0.8167520165
ltoes  -4.250644065 -19.5611806 -102.515957
243
root  12.64626661 41.45622253 -3.166066568 -2.173690081 -40.35430145 -10.9847002
lowerback  9.260080338 3.153680086 -3.157140017
upperback  4.393509865 3.738810062 -4.739140034
thorax  -0.4980309904 1.82277 -3.49574995
lowerneck  4.202179909 8.803449631 -3.782730103
upperneck  19.07710075 10.05720043 11.69989967
head  4.163990021 5.175479889 4.40500021
lclavicle  0 -9.442270133e-015 7.951389973e-016
lhumerus  15.12040043 -8.986519814 62.40840149
lradius  2.759223803e-031 -2.203526274e-031 141.3890076
lwrist  -7.062250077e-031 -0 9.503170013
lhand  -1.496451383e-031 -27.76390076 20.11240005
lfingers  90 7.125020027 -90
lthumb  89.89689403 5.08795885 91.16245106
rclavicle  0 -9.442270133e-015 7.951389973e-016
rhumerus  -11.01819992 3.494309902 -71.46330261
rradius  -2.465882895e-031 2.527501847e-031 134.2929993
rwrist  0 -1.765562519e-031 -3.119519949
rhand  -7.920061211e-032 -33.2840004 9.303460121
rfingers  -90 -7.125020027 -90
rthumb  -92.93752616 -24.25625642 -97.11982154
rfemur  -13.85070038 14.56599998 10.65719986
rtibia  -0 0 49.02389908
rfoot  -0 2.520260096 -9.521120071
rtoes  5.373923086 19.29304026 -105.8922705
lfemur  -21.41360092 -5.198929787 4.72796011
ltibia  -0 0 49.38570023
lfoot  4.505382927e-032 11.56550026 -1.254600048
ltoes  -4.250644065 -19.5611806 -102.515957
244
root  12.73231056 41.35444521 -3.139311122 -4.013800144 -41.94340134 -8.859629631
lowerback  9.459130287 3.283790112 -4.245679855
upperback  4.348340034 3.7822299 -5.036499977
thorax  -0.6990789771 1.826349974 -3.219059944
lowerneck  4.526000023 8.797739983 -3.317519903
upperneck  19.38310051 10.0802002 11.09049988
head  4.272089958 5.173449993 4.145909786
lclavicle  0 -9.442270133e-015 7.951389973e-016
lhumerus  14.37959957 -9.735190392 62.60839844
lradius  2.750703586e-031 -2.214153071e-031 141.1679993
lwrist  -7.062250077e-031 -0 8.783329964
lhand  -1.496451383e-031 -27.76390076 20.11240005
lfingers  90 7.125020027 -90
lthumb  89.89689403 5.08795885 91.16245106
rclavicle  0 -9.442270133e-015 7.951389973e-016
rhumerus  -10.50230026 3.883059978 -70.97530365
rradius  -2.504236684e-031 2.489506511e-031 135.1690063
rwrist  3.531125038e-031 -0 -3.278779984
rhand  -7.920061211e-032 -33.2840004 9.303460121
rfingers  -90 -7.125020027 -90
rthumb  -92.93752616 -24.25625642 -97.11982154
rfemur  -13.89210033 14.02499962 9.141059875
rtibia  -0 0 51.85689926
rfoot  -4.417416794e-032 2.284369946 -5.765600204
rtoes  5.373923086 19.29304026 -105.8922705
lfemur  -20.31040001 -5.67223978 2.388269901
ltibia  -0 0 48.91880035
lfoot  5.059634982e-032 11.06099987 -0.786338985
ltoes  -4.250644065 -19.5611806 -102.515957
245
root  12.81082273 41.22666787 -3.126977748 -5.52755022 -43.1792984 -7.097129822
lowerback  9.427559853 3.400010109 -5.108530045
upperback  4.435639858 3.852200031 -5.29640007
thorax  -0.6238139868 1.844370008 -3.014689922
lowerneck  4.704140186 8.630330086 -2.792510033
upperneck  19.41729927 9.88613987 10.6807003
head  4.32449007 5.083769798 3.933710098
lclavicle  0 -9.442270133e-015 7.951389973e-016
lhumerus  14.1243 -10.43029976 62.78760147
lradius  2.748151462e-031 -2.217319909e-031 141.102005
lwrist  -7.062250077e-031 -1.765562519e-031 8.89910984
lhand  -1.496451383e-031 -27.76390076 20.11240005
lfingers  90 7.125020027 -90
lthumb  89.89689403 5.08795885 91.16245106
rclavicle  0 -9.442270133e-015 7.951389973e-016
rhumerus  -9.852319717 4.10379982 -70.66470337
rradius  -2.53575095e-031 2.457399266e-031 135.8990021
rwrist  3.531125038e-031 -1.765562519e-031 -3.085880041
rhand  -7.920061211e-032 -33.2840004 9.303460121
rfingers  -90 -7.125020027 -90
rthumb  -92.93752616 -24.25625642 -97.11982154
rfemur  -13.89789963 13.30760002 8.01224041
rtibia  -0 0 54.85660172
rfoot  -4.416670132e-032 2.027070045 -2.465939999
rtoes  5.373923086 19.29304026 -105.8922705
lfemur  -19.54019928 -6.217639923 0.4515709877
ltibia  -0 0 48.31209946
lfoot  4.730396242e-032 9.617360115 0.01205939986
ltoes  -4.250644065 -19.5611806 -102.515957
246
root  12.89333283 41.04066684 -3.147400083 -5.922090054 -44.62110138 -6.768370152
lowerback  9.232819557 3.395610094 -4.974899769
upperback  4.616600037 3.885349989 -5.226260185
thorax  -0.324586004 1.856590033 -2.999989986
lowerneck  4.442739964 8.590089798 -2.718590021
upperneck  19.39080048 9.863679886 10.43019962
head  4.380589962 5.068560123 3.857700109
lclavicle  0 -9.442270133e-015 7.951389973e-016
lhumerus  13.95119953 -10.59959984 63.06380081
lradius  2.748460862e-031 -2.216936384e-031 141.1100006
lwrist  -1.412450015e-030 -0 9.161689758
lhand  -1.496451383e-031 -27.76390076 20.11240005
lfingers  90 7.125020027 -90
lthumb  89.89689403 5.08795885 91.16245106
rclavicle  0 -9.442270133e-015 7.951389973e-016
rhumerus  -8.721440315 4.742929935 -70.5298996
rradius  -2.557056176e-031 2.435222321e-031 136.397995
rwrist  1.412450015e-030 -3.531125038e-031 -2.771409988
rhand  -7.920061211e-032 -33.2840004 9.303460121
rfingers  -90 -7.125020027 -90
rthumb  -92.93752616 -24.25625642 -97.11982154
rfemur  -14.2177 12.90190029 8.153539658
rtibia  -0 0 57.9353981
rfoot  -4.692068958e-032 1.791530013 -0.2476650029
rtoes  5.373923086 19.29304026 -105.8922705
lfemur  -19.10829926 -6.237040043 -0.1350629926
ltibia  -0 0 47.79660034
lfoot  5.56695619e-032 7.652009964 1.331159949
ltoes  -4.250644065 -19.5611806 -102.515957
247
root  12.97326726 40.84533331 -3.167510971 -6.214749813 -45.90660095 -6.567299843
lowerback  9.514690399 3.364279985 -4.718009949
upperback  4.400109768 3.831209898 -5.073729992
thorax  -0.701308012 1.837859988 -3.002759933
lowerneck  4.526030064 8.608819962 -2.702250004
upperneck  19.52129936 9.884579659 10.31359959
head  4.414390087 5.069690228 3.821269989
lclavicle  0 -9.442270133e-015 7.951389973e-016
lhumerus  12.84490013 -11.50450039 63.75590134
lradius  2.759492553e-031 -2.203189707e-031 141.3959961
lwrist  0 -1.765562519e-031 8.672419548
lhand  -1.496451383e-031 -27.76390076 20.11240005
lfingers  90 7.125020027 -90
lthumb  89.89689403 5.08795885 91.16245106
rclavicle  0 -9.442270133e-015 7.951389973e-016
rhumerus  -8.289970398 5.921629906 -70.42910004
rradius  -2.57707287e-031 2.414029714e-031 136.8710022
rwrist  7.062250077e-031 -3.531125038e-031 -2.554179907
rhand  -7.920061211e-032 -33.2840004 9.303460121
rfingers  -90 -7.125020027 -90
rthumb  -92.93752616 -24.25625642 -97.11982154
rfemur  -14.34659958 12.26350021 8.428110123
rtibia  -0 0 60.9530983
rfoot  -4.968363936e-032 1.895760059 0.7549690008
rtoes  5.373923086 19.29304026 -105.8922705
lfemur  -18.78479958 -6.027219772 -0.5989260077
ltibia  -0 0 47.47869873
lfoot  4.433969864e-032 5.452670097 3.238080025
ltoes  -4.250644065 -19.5611806 -102.515957
